// visualiser at dbdiagram.io

Table events {
  event_id integer [primary key]
  event_name char
  date char
  country char
  state char
  city char
}

Table clubs {
  club_id integer [primary key]
  club_name char
  country char
  state char
  city char
}

Table fighters {
  fighter_id integer [primary key]
  name char
  club_id integer
}

Table ratings {
  category_id integer
  date char
  fighter_id integer
  weighted_rating float
  deviation float
  active bool
}

Table categories {
  category_id integer
  category_name char
}

Table competitions {
  competition_id integer [primary key]
  event_id integer
  category_id integer
}

Table fights {
  fight_id integer [primary key]
  fighter_1_id integer
  fighter_2_id integer
  result integer
  competition_id integer
}

Ref: "fighters"."club_id" < "clubs"."club_id"

Ref: "ratings"."fighter_id" < "fighters"."fighter_id"

Ref: "ratings"."category_id" < "categories"."category_id"

Ref: "competitions"."event_id" < "events"."event_id"

Ref: "competitions"."category_id" < "categories"."category_id"

Ref: "fights"."fighter_1_id" < "fighters"."fighter_id"

Ref: "fights"."fighter_2_id" < "fighters"."fighter_id"

Ref: "fights"."competition_id" < "competitions"."competition_id"
